<svg width="299" height="47" xmlns="http://www.w3.org/2000/svg">
 <g id="Layer_1">
  <title>Layer 1</title>
  <path fill="#bf0000" stroke="#bf0000" d="m90.77363,42.21615l15.50067,-23.98491l15.50067,23.98491l-31.00134,0z" id="svg_16"/>
  <path fill="#bf0000" stroke="#bf0000" d="m266.18936,41.68736l15.49927,-23.98011l15.49927,23.98011l-30.99855,0l0.00001,0z" id="svg_18" transform="rotate(-179.784, 281.688, 29.6971)"/>
  <rect fill="#bf0000" stroke="#bf0000" x="107.12304" y="17.80283" width="173.86799" height="24.33389" id="svg_19"/>
  <text font-style="italic" font-weight="bold" xml:space="preserve" text-anchor="start" font-family="sans-serif" font-size="35" stroke-width="0" id="svg_6" y="33.28781" x="56.93447" stroke="#000" fill="#ffffff">RollingNEWS</text>
  <path fill="#ffffff" stroke="#000" stroke-width="0" d="m30.16319,2.08685c-12.88708,0 -23.33385,9.61737 -23.33385,21.4813c0,11.86393 10.44677,21.4813 23.33385,21.4813c12.88708,0 23.33385,-9.61737 23.33385,-21.4813c0,-11.86393 -10.44677,-21.4813 -23.33385,-21.4813zm5.07006,32.22491c-0.12683,0.09459 -0.2938,0.19214 -0.16857,0.30595c0.12523,0.11528 -0.14449,0.19362 -0.14449,0.25126s0.16697,0.36359 0.08348,0.49661c-0.08348,0.13598 -0.1461,0.32959 -0.20871,0.44488c-0.06261,0.11381 -0.21032,0.22909 -0.16697,0.40202c0.04014,0.17145 -0.16697,0.11381 -0.16697,0.28673c0,0.17145 0.18623,0.09607 0.14449,0.30742c-0.04014,0.21283 -0.14449,0.27047 -0.14449,0.42123c0,0.15371 0.10275,0.36507 0.10275,0.42271s-0.10275,0.25126 -0.24885,0.40202c-0.1477,0.15371 -0.24885,0.25126 -0.23119,0.34437c0.02248,0.09607 0.16697,0.21283 0.1461,0.27195c-0.02087,0.05469 -0.20711,0.2483 -0.18623,0.3828c0.02248,0.13302 0.20711,0.07833 0.24885,0.17145c0.04174,0.09607 -0.24885,0.1744 -0.12523,0.27047c0.12523,0.09459 0.2938,0.07538 0.25045,0.30742c-0.0305,0.16554 0.10275,0.24091 0.20229,0.29264c-1.43047,0.32664 -2.91874,0.52026 -4.45838,0.52026c-10.21077,0 -18.51584,-7.64571 -18.51584,-17.04582c0,-3.0639 0.89424,-5.93418 2.4371,-8.42019c0.12683,-0.06208 0.21995,-0.10198 0.27453,-0.09164c0.10436,0.01921 0.12683,0.15371 0.2938,0.19214c0.16697,0.03843 0.31307,-0.11528 0.41742,-0.17293c0.10275,-0.05764 0.18623,-0.28821 0.08188,-0.269c-0.10436,0.01921 -0.37568,0 -0.37568,0s0.2938,-0.15371 0.2938,-0.24978s0.04014,-0.24978 0.20711,-0.30742c0.16536,-0.05912 0.16536,-0.02069 0.06101,0.20988c-0.10436,0.23057 0.21032,0.1345 0.33394,0.03843s0.20871,-0.01921 0.43669,-0.15371c0.22958,-0.1345 0.22958,-0.21135 0.35481,-0.21135c0.12523,0 0.35481,0.21135 0.48003,0.1345c0.12362,-0.07686 0.48003,0.09607 0.68875,0.09607c0.20711,0 0.87498,0.24978 1.00181,0.24978c0.12523,0 0.50091,0.13302 0.52178,0.3828c0.02087,0.24978 0.14449,0.23057 0.26972,0.23057s0.41742,0.09607 0.41742,0.19214c0,0.09607 -0.08348,0.48035 0.12523,0.57642c0.20711,0.09459 0.39655,0.24978 0.48003,0.21135c0.08348,-0.03843 0,-0.34437 -0.10275,-0.38428c-0.10436,-0.03843 -0.04335,-0.17293 -0.08348,-0.24978c-0.04174,-0.07538 0.12523,-0.07538 0.18784,0.05764c0.06261,0.1345 0.22958,0.38428 0.33394,0.38428c0.10275,0 0.33394,0.23057 0.26972,0.36507c-0.06261,0.1345 0.06261,0.32664 0.25045,0.32664c0.18623,0 0.41742,0.269 0.50091,0.28821c0.08348,0.01921 0.18784,0.11528 0.18784,0.17293c0,0.05912 0.10436,0.38428 0.10436,0.51878c0,0.13302 -0.06422,0.67101 -0.08509,0.88237s0.16697,0.57642 0.37568,0.76856c0.20711,0.19214 0.39494,0.55721 0.52017,0.63406c0.12683,0.07686 0.20871,0.28821 0.39655,0.269c0.18784,-0.01921 0.31307,0.11528 0.48003,0.38428c0.16697,0.269 0.33394,0.70944 0.45916,0.74787c0.12523,0.03843 0.33394,0.17293 0.22798,0.269c-0.10275,0.09459 -0.26972,0.30742 -0.08188,0.30742c0.18784,0 0.25045,-0.09607 0.39655,0.07833c0.14449,0.17145 0.33394,0.26752 0.31146,0.38428c-0.02087,0.11381 0.16697,0.15223 0.25045,0.17145c0.08348,0.01921 0.27132,0.36507 0.45916,0.21135c0.18784,-0.15371 -0.24885,-0.3828 -0.37568,-0.48183c-0.12523,-0.09459 0,-0.30595 -0.29219,-0.5173c-0.29219,-0.21135 -0.25045,-0.36507 -0.45916,-0.51878c-0.20871,-0.15371 -0.37407,-0.28821 -0.16697,-0.42271c0.20871,-0.1345 0.22958,0.1345 0.31307,0.30742c0.08348,0.17145 0.52017,0.51878 0.70801,0.67101c0.18784,0.15371 0.52338,0.69171 0.62613,0.69171s0.39655,0.30742 0.39655,0.30742s0.16536,0.2483 0.10275,0.32516c-0.06261,0.07686 0.08509,0.36507 0.23119,0.44192c0.14449,0.07686 0.73049,0.32516 0.81397,0.36507c0.08348,0.03991 0.24885,0.32664 0.48003,0.32664c0.22798,0 0.39655,0.02069 0.45916,0.07833c0.06261,0.05616 0.24885,0.28673 0.37568,0.15371c0.12523,-0.13598 0.14449,-0.19362 0.33394,-0.19362c0.18784,0 0.26972,0.1345 0.37407,0.23057c0.10436,0.09607 0.39655,0.34733 0.54265,0.32812c0.1461,-0.01921 0.33394,0.15371 0.43829,0.09459s0.27132,0.03695 0.3532,0.07686c0.0867,0.03843 0.37568,0.1744 0.35641,0.40202c-0.02087,0.23205 0.16536,0.28821 0.29219,0.34585c0.12523,0.05764 0.29219,0.19214 0.39816,0.28821c0.10275,0.09311 0.33073,0.11381 0.39494,0.17145c0.06261,0.05764 0.10436,0.17293 0.29219,0.07686c0.18623,-0.09459 0.1477,-0.26752 0.1477,-0.26752s0.20711,-0.03843 0.31146,0.03843c0.10275,0.0739 0.16697,0.32516 0.23119,0.36359c0.06101,0.03843 0.18463,0.32664 0.10114,0.53504c-0.08188,0.21431 -0.06101,0.42271 -0.1461,0.42271c-0.08348,0 -0.18623,0.25126 -0.31307,0.3089c-0.12202,0.05764 -0.45756,0.32664 -0.43669,0.42271c0.02087,0.09311 0.21032,0.38132 0.16697,0.5173c-0.04014,0.1345 -0.31146,0.28821 -0.24724,0.49957c0.06101,0.21283 0.50091,0.27047 0.51857,0.46114c0.02248,0.19362 0.33554,0.61633 0.37728,0.80699c0.04014,0.19214 0.39494,0.40202 0.39494,0.66954c0,0.27195 0.50091,0.4434 0.60526,0.46114c0.10114,0.01921 0.29219,0.19362 0.43669,0.25126s0.27132,0.17145 0.37407,0.32664s0.08509,0.38576 0.08509,0.44192c0,0.05764 -0.06261,0.65032 -0.12523,0.99617c-0.06422,0.34733 0.08027,0.61633 -0.04335,0.71388l0.00002,0.00002zm-13.47307,-17.85576c0.06261,0.01921 0.18784,0.1345 0.25045,0.1345c0.06422,0 0.37568,0.23057 0.45916,0.30742c0.08509,0.07686 0.08509,0.28821 -0.02087,0.30742s-0.16697,-0.21135 -0.18784,-0.30742c-0.02087,-0.09607 -0.22958,-0.09607 -0.33394,-0.15371c-0.10436,-0.05764 -0.33715,-0.34142 -0.16697,-0.28821l0.00001,0zm26.88193,7.71813c-0.23119,0.269 -0.20871,0.40202 -0.31307,0.42271c-0.10275,0.01921 0.10436,0.09607 0.14449,0.28673c0.03532,0.16554 -0.10436,0.33107 0.10114,0.48331c-0.78026,6.8269 -5.95628,12.46548 -12.86942,14.46522c-0.01124,-0.01626 -0.0305,-0.03695 -0.03371,-0.05025c-0.04335,-0.11528 -0.04335,-0.34437 0.10275,-0.42123c0.1461,-0.07833 0.50091,-0.34437 0.58278,-0.40202c0.08348,-0.05912 0.20871,-0.32664 0.1461,-0.36507c-0.06101,-0.03843 -0.37247,0 -0.41742,-0.05764c-0.04174,-0.05764 -0.04174,-0.13598 0.16697,-0.269c0.20871,-0.1345 0.31307,-0.32812 0.39655,-0.38428c0.08348,-0.05764 0.24885,-0.17293 0.31307,-0.3089c0.06101,-0.13302 -0.06582,-0.05764 -0.18945,-0.05764s-0.18784,-0.20988 -0.18784,-0.30595s0.31307,0.03843 0.54425,0.07686c0.22958,0.03547 0.12362,-0.09607 0.10275,-0.20988c-0.02087,-0.11528 0.04174,-0.3089 0.16857,-0.25126c0.12202,0.05764 0.76902,-0.01921 0.8525,-0.03843c0.08348,-0.01921 0.31146,-0.36359 0.39494,-0.46114c0.08509,-0.09607 0.10275,-0.19066 0,-0.2483c-0.10436,-0.05912 -0.22958,-0.27195 -0.26972,-0.32664c-0.04174,-0.0606 -0.06261,-0.40497 -0.02087,-0.50252c0.04014,-0.09311 0,0.55721 0.29059,0.63554c0.2938,0.07686 0.45916,0.11528 0.73049,-0.11528c0.27132,-0.22909 0.47843,-0.38428 0.50091,-0.53652c0.02087,-0.15371 0.08348,-0.3089 0.18784,-0.36359c0.10436,-0.05764 0.16697,0.15223 0.29219,-0.09607c0.12523,-0.25126 0.25045,-0.23205 0.37568,-0.44192c0.12362,-0.21283 -0.20871,-0.48035 0.03853,-0.63554c0.25206,-0.15223 0.69035,-0.34437 0.69035,-0.34437s0.12523,-0.05764 0.37568,-0.11528c0.24885,-0.05616 0.52017,-0.02069 0.60366,-0.13302c0.08348,-0.11676 0.16697,-0.36507 0.29219,-0.49957c0.12683,-0.13598 0.27132,-0.34585 0.20871,-0.44192c-0.06261,-0.09607 0.16697,-0.52026 0.1461,-0.63406c-0.02087,-0.11528 -0.20871,-0.38576 0.10436,-0.61485s0.6454,-0.5779 0.66787,-0.67101c0.01927,-0.09607 0.27132,-0.49957 0.24724,-0.69318c-0.01927,-0.19066 -0.24724,-0.42123 -0.39334,-0.48035c-0.1477,-0.05469 -0.45916,-0.0739 -0.58439,-0.22761s-0.48003,-0.30742 -0.60526,-0.269c-0.12362,0.03843 -0.33394,0.07538 -0.50091,-0.02217c-0.16697,-0.09311 -0.43669,-0.21135 -0.54104,-0.28673c-0.10596,-0.07538 -0.37568,-0.13302 -0.50091,-0.13302s-0.10436,-0.07833 -0.29219,0.15223c-0.18784,0.23205 0,0.3089 -0.33394,0.269c-0.33554,-0.03547 0.04014,-0.05616 0.23119,-0.28673c0.18463,-0.22909 -0.02248,-0.36507 -0.23119,-0.30595c-0.20871,0.05764 -0.06261,0.17293 -0.39655,0.23057c-0.33233,0.05616 -0.33233,-0.13598 -0.12362,-0.17293c0.20871,-0.03843 0.58278,-0.21135 0.58278,-0.28673c0,-0.07833 -0.04174,-0.28969 -0.20871,-0.28969s-0.12523,-0.19066 -0.37407,-0.43897c-0.25045,-0.25126 -0.56352,-0.40497 -0.81558,-0.36802c-0.24724,0.03843 -0.43669,0.09607 -0.56191,-0.11233c-0.12523,-0.21283 -0.27132,-0.25126 -0.35641,-0.36507c-0.08188,-0.11528 -0.29219,0 -0.35481,-0.05764s-0.06261,-0.05764 -0.06261,-0.05764s-0.27132,0.05764 -0.12362,-0.11528c0.14449,-0.17293 0.20711,-0.49957 0.14449,-0.48035c-0.06101,0.01921 -0.16697,0.28969 -0.26972,0.27047c-0.10275,-0.01921 -0.02248,-0.05912 -0.23119,-0.17293c-0.20871,-0.11528 -0.54104,-0.01921 -0.54104,0.07686c0,0.09607 -0.10436,0.17293 -0.10436,0.17293s-0.06261,-0.05616 -0.12523,-0.17293c-0.06261,-0.11528 -0.35481,-0.1345 -0.50091,-0.01921c-0.14449,0.11528 -0.22798,-0.28969 -0.33233,-0.28969s-0.31146,0.09607 -0.41742,0.27195c-0.10275,0.17145 -0.06101,0.42123 -0.1477,0.40202c-0.08027,-0.01921 -0.10114,-0.34437 -0.08027,-0.46114c0.01927,-0.11676 0.24885,-0.30742 0.08027,-0.34585c-0.16536,-0.03843 -0.41582,0.19214 -0.51857,0.21135c-0.10436,0.01921 -0.31307,0.15371 -0.43829,0.3089c-0.12362,0.15223 -0.18623,0.2483 -0.31307,0.30595c-0.12362,0.05764 -0.30986,0 -0.26811,-0.05764c0.04014,-0.05764 -0.35641,-0.26752 -0.41903,-0.19214c-0.06422,0.07686 -0.24885,0.1345 -0.43669,0.21283c-0.18784,0.07686 -0.35641,-0.09607 -0.39655,-0.17293s-0.12683,-0.09459 -0.1461,-0.34585c-0.02087,-0.2483 0.04335,-0.51878 0.10436,-0.67101c0.06101,-0.15371 -0.31307,-0.46114 -0.45916,-0.4434c-0.1461,0.02217 -0.29219,0.15519 -0.43669,0.1345c-0.1477,-0.01774 -0.08348,-0.05616 -0.31307,-0.05616c-0.22958,0 -0.04174,-0.03695 0,-0.21135c0.04014,-0.17145 -0.08348,-0.40349 0.1477,-0.55721c0.22798,-0.15371 0.1461,-0.51878 0,-0.53652c-0.1477,-0.02069 -0.41903,0.05764 -0.60526,0.03843c-0.18623,-0.02069 -0.33394,0.1345 -0.27132,0.30595c0.06261,0.17293 -0.10436,0.28821 -0.16697,0.27047c-0.06261,-0.01921 -0.14449,-0.11528 -0.37568,0.03843c-0.22798,0.15223 -0.31146,0.09459 -0.54104,-0.07686c-0.22958,-0.1744 -0.48003,-0.34585 -0.52178,-0.61485c-0.04174,-0.269 -0.06422,-0.53799 0.02087,-0.69171c0.08188,-0.15371 0.08188,-0.42123 -0.04174,-0.46114c-0.12523,-0.03695 0.14449,-0.22909 0.29059,-0.26752c0.1477,-0.03843 0.37568,-0.21135 0.41742,-0.28821c0.04174,-0.07686 0.25045,-0.05912 0.47843,-0.05912c0.22958,0 0.27132,0 0.50091,0.11528c0.22958,0.11528 0.27132,-0.05764 0.27132,-0.11528c0,-0.05764 0.08348,-0.17293 0.33394,-0.15371c0.25045,0.01921 0.60366,-0.07686 0.66787,-0.01921s0.18623,0.28821 0.31146,0.21135c0.12683,-0.07538 0.16697,-0.21135 0.21032,0.02069c0.04014,0.22909 0.14449,0.57642 0.33394,0.63406c0.18623,0.05764 0.08348,0.28673 0.26972,0.30595c0.18463,0.01921 0.27293,-0.36359 0.21032,-0.49809c-0.06422,-0.13302 -0.18945,-0.53652 -0.2938,-0.63259c-0.10275,-0.09607 -0.10275,-0.34585 0.10275,-0.42271c0.20871,-0.07686 0.70962,-0.46114 0.85411,-0.57494c0.1477,-0.11676 0.54265,-0.21283 0.41903,-0.36654c-0.12523,-0.15371 -0.16697,-0.2483 -0.16697,-0.36507s0.12523,-0.07686 0.18784,0s0.31146,-0.11528 0.24885,-0.21135c-0.06101,-0.09459 -0.04174,-0.22909 0.10436,-0.21135c0.1461,0.01921 0.18623,-0.09607 0.12523,-0.17293c-0.06261,-0.07686 0.1461,-0.17293 0.29219,-0.1345c0.1477,0.03843 0.52178,-0.01921 0.58439,-0.09607c0.06101,-0.07686 -0.12523,-0.15371 -0.12523,-0.30742c0,-0.15371 0.24885,-0.28821 0.39655,-0.30742c0.1461,-0.01921 0.33233,0 0.35481,-0.05764c0.01927,-0.05764 0.22958,-0.21135 0.24885,-0.07686c0.02248,0.1345 0,0.36507 0.16697,0.36507c0.16697,0 0.37247,-0.17293 0.43669,-0.19066c0.06101,-0.01921 0.45916,-0.09607 0.54265,-0.11528c0.08348,-0.01921 0.58278,-0.05764 0.52178,-0.19214c-0.06261,-0.13302 -0.12523,-0.26752 -0.18945,-0.32516c-0.06261,-0.05764 -0.12362,0.01921 -0.20871,0.11528c-0.08188,0.09607 -0.22958,0.09607 -0.26972,0.01921c-0.04174,-0.07538 0.01927,-0.30595 -0.12523,-0.23057c-0.1477,0.07686 -0.16697,0.15371 -0.25206,0.11528c-0.08348,-0.03843 -0.16536,-0.17293 -0.16536,-0.17293s0.20711,-0.09459 0.06101,-0.269c-0.14449,-0.17293 -0.35481,-0.1345 -0.56191,-0.03695c-0.20871,0.09459 -0.18945,0.07538 -0.43829,0.13302s-0.37568,0.11528 -0.37568,0.11528s0.33554,-0.19066 0.48003,-0.30742c0.1461,-0.11528 0.33554,-0.17293 0.45916,-0.28821c0.12523,-0.11528 0.45756,0.05764 0.45756,0.05764s0.16857,-0.15371 0.16857,-0.05764s-0.04335,0.34585 0.08188,0.34585c0.12683,0 0.48003,-0.15371 0.33715,-0.19362c-0.14931,-0.03843 0.20711,0 0.3516,-0.09607c0.1477,-0.09607 0.31146,-0.09607 0.39655,-0.13302c0.08348,-0.03843 0.1477,-0.21135 0.29219,-0.21135c0.1477,0 0.20871,0.17293 0,0.28821s-0.22958,0.40349 -0.33394,0.48035c-0.10275,0.07686 -0.04174,0.17293 0.12523,0.15371c0.16697,-0.01921 0.31146,0.01921 0.45916,-0.01921s0.22958,0.03843 0.26972,0.09607c0.04174,0.05764 0.16697,-0.05764 0.16697,-0.05764s0.27132,-0.05764 0.35481,0.03843c0.08509,0.09459 0.1477,-0.05764 0.08509,-0.15371c-0.06261,-0.09459 -0.1477,-0.19066 -0.20871,-0.30742c-0.06261,-0.11528 -0.1461,-0.15371 -0.31146,-0.11528c-0.16697,0.03843 -0.20871,-0.03843 -0.31307,-0.09459c-0.10436,-0.05912 -0.18945,0.07686 -0.10436,-0.05912c0.08509,-0.13302 0.12523,-0.17293 0.18784,-0.28821c0.06261,-0.11528 0.33554,-0.32664 0.06261,-0.3828c-0.27132,-0.05912 -0.35641,-0.09607 -0.39655,-0.21135c-0.04174,-0.11528 -0.35481,-0.32664 -0.43669,-0.32664c-0.08509,0 -0.37407,0 -0.39655,-0.09607c-0.02087,-0.09607 -0.22958,-0.30742 -0.33394,-0.40349c-0.10275,-0.09607 -0.50091,-0.51878 -0.56352,-0.55721c-0.06261,-0.03843 -0.1461,-0.01921 -0.33394,0.21135c-0.18623,0.23205 -0.3532,0.27047 -0.50091,0.21283c-0.1461,-0.05764 -0.16697,-0.03843 -0.30986,-0.19214c-0.14931,-0.15371 0.14449,-0.17293 0.08188,-0.269c-0.06422,-0.09459 -0.39655,-0.1345 -0.60526,-0.15371c-0.20871,-0.01921 -0.35481,-0.23057 -0.66787,-0.24978c-0.31146,-0.01921 -0.68714,0.03843 -0.79149,0.03843c-0.10275,0 -0.10275,0.1345 -0.14449,0.34585c-0.04335,0.21135 0.14449,0.269 -0.04335,0.30742c-0.18623,0.03843 -0.27132,0.05764 -0.08348,0.1345c0.18784,0.07686 0.43829,0.38428 0.43829,0.38428s0,0.17293 -0.1477,0.269c-0.14449,0.09607 -0.29219,0.19214 -0.37407,0.07833c-0.08509,-0.11676 -0.31307,-0.09607 -0.24885,0.01921c0.06101,0.11528 0.18623,0.17293 0.18623,0.28821c0,0.11381 0.18784,0.40202 0.06261,0.49809c-0.12523,0.09607 -0.26972,0.02069 -0.37407,0.03843s-0.21032,-0.15371 -0.12523,-0.19214c0.08188,-0.03843 -0.02248,-0.32664 -0.02248,-0.32664s-0.24885,0.32664 -0.22958,0.15371c0.02248,-0.17293 -0.10275,-0.19214 -0.10275,-0.32664c0,-0.1345 -0.12683,-0.19214 -0.31146,-0.15371c-0.18945,0.03843 -0.41742,-0.05912 -0.77383,-0.11676c-0.3532,-0.05764 -0.4993,-0.09459 -0.79149,-0.23057c-0.29219,-0.1345 -0.39655,-0.03843 -0.54265,-0.01921c-0.1461,0.01921 -0.08348,-0.269 -0.27132,-0.30595c-0.18623,-0.03991 -0.29059,0.03695 -0.33233,-0.21283c-0.04174,-0.2483 0.06261,-0.30742 0.52017,-0.57642c0.45916,-0.269 0.39655,-0.38428 0.75136,-0.42271c0.3532,-0.03843 0.52178,0.03843 0.52178,-0.05764s0.08348,-0.48035 0.08348,-0.28821s0.42063,0.20396 0.23119,0.33846c-0.18623,0.1345 -0.08348,0.15371 0.06422,0.15371c0.1461,0 0.41582,-0.1345 0.41582,-0.1345s0.33394,-0.1345 0.41742,-0.01921c0.08509,0.11528 0.08509,0.23057 0.23119,0.23057s0.45756,-0.15371 0.18623,-0.28821c-0.26972,-0.1345 -0.43669,-0.11528 -0.60366,-0.269s-0.12523,-0.09607 -0.31307,-0.05764c-0.18623,0.03843 -0.18623,-0.05764 -0.25045,-0.05764s-0.16697,0.03843 -0.20871,-0.03843c-0.04014,-0.07686 0.02248,-0.09607 0.23279,-0.09607c0.20711,0 0.45756,0.05764 0.45756,0.05764s0.24885,-0.07686 0.31146,-0.09607c0.06261,-0.01921 0.39655,-0.05764 0.33394,-0.22909c-0.06422,-0.17293 -0.27132,-0.17293 -0.33394,-0.23057s0.12523,-0.13302 0.22958,-0.17293c0.10436,-0.03843 0.39655,0 0.39655,0s0.18784,0.01921 0.18784,-0.05764s-0.04495,-0.17293 0.08188,-0.11528s0,0.23057 0.18784,0.19214c0.18623,-0.03843 0.22958,0 0.33233,0.05764c0.10436,0.05764 -0.02087,0.28821 -0.12362,0.32664c-0.10436,0.03695 -0.27132,0.11381 -0.04174,0.13302c0.23119,0.02069 0.39494,0.02069 0.39494,0.02069s0.1477,-0.1345 0.21032,-0.24978c0.06101,-0.11528 0.16697,-0.03843 0.24885,0c0.08348,0.03695 0.39655,0.09607 0.10436,0.17293c-0.2938,0.07686 -0.35481,0.17293 -0.41742,0.269c-0.06101,0.09607 -0.08509,0.15371 -0.35481,0.09607c-0.27293,-0.05764 -0.41742,-0.03843 -0.48003,0.05764c-0.06261,0.09459 -0.02087,0.40349 0.08509,0.36507c0.10114,-0.03843 0.20711,-0.03843 0.33233,-0.07686c0.12523,-0.03843 0.62613,0.03843 0.74975,0.01921c0.12523,-0.01921 0.33554,0.19214 0.39816,0.15371c0.06261,-0.03843 0.18784,0.07686 0.31146,0.15371c0.12523,0.07686 0.08348,-0.17293 0.31146,-0.01921c0.23119,0.15371 0.10436,0.15371 0.23119,0.15371c0.12202,0 0.39494,0.01921 0.39494,0.01921s0.02248,-0.19066 0.23119,-0.15371c0.20871,0.03843 0.39334,0.24978 0.37247,0.09459c-0.01927,-0.15223 0.02087,-0.26752 -0.14449,-0.3828c-0.16697,-0.11528 -0.43669,-0.19214 -0.48003,-0.24978c-0.04174,-0.05764 -0.08348,-0.1345 -0.02087,-0.17293c0.06261,-0.03695 0.35481,0.01921 0.52017,0.11676c0.16697,0.09607 0.31307,0.19214 0.43829,0.11528c0.12362,-0.07686 0.27293,-0.11528 0.33394,-0.17293c0.06101,-0.05912 0.20871,-0.23057 0.20871,-0.23057s-0.62774,-0.07538 -0.70801,-0.17293c-0.08509,-0.09607 -0.37728,-0.23057 -0.46077,-0.23057s-0.31146,0.1345 -0.39494,-0.05764s-0.08348,-0.42271 -0.16857,-0.44192c-0.08027,-0.01921 -0.95846,-0.1345 -1.08208,-0.19214c-0.12523,-0.05764 -0.62613,-0.19214 -0.81397,-0.28821s-0.45916,-0.23057 -0.62453,-0.23057c-0.16697,0 -0.85571,0.07686 -0.98094,0.05764c-0.12523,-0.01921 -0.50091,0.03843 -0.647,0.05764c-0.1461,0.01921 0.18784,0.269 -0.12362,0.32664c-0.31307,0.05764 -0.27132,0.09607 -0.20871,-0.19214c0.06101,-0.28821 -0.21032,-0.36507 -0.48003,-0.24978c-0.27132,0.11528 -0.70962,0.19214 -0.60526,0.32664c0.10436,0.1345 -0.01927,0.23205 0.18784,0.36507c0.20871,0.1345 0.2938,0.17293 0.56191,0.15371c0.27293,-0.01921 0.54425,0.03695 0.54425,0.03695s0,0.23205 -0.10275,0.269c-0.10436,0.03843 -0.27132,0.03843 -0.31467,0.15371c-0.04014,0.11528 -0.24885,0.17293 -0.24885,0.11528s0.10436,-0.24978 -0.04174,-0.34585c-0.14449,-0.09607 -0.18784,-0.11528 -0.35481,-0.01921c-0.16697,0.09607 -0.18623,0.1345 -0.27132,-0.01921c-0.08348,-0.15371 -0.33394,-0.28821 -0.33394,-0.28821s-0.16697,-0.19066 -0.29219,-0.28673c-0.12362,-0.09607 -0.3532,-0.07686 -0.37568,0.01921c-0.02087,0.09459 0.04174,0.19066 0.12523,0.36507c0.08348,0.17293 0.16697,0.49809 0.02087,0.51878c-0.1461,0.01921 -0.16697,0.03843 -0.31307,0.07686c-0.1461,0.03843 -0.20871,-0.05764 -0.20871,-0.21135s-0.06422,-0.28821 -0.02087,-0.34585c0.04174,-0.05764 -0.16697,0.03991 -0.37568,0c-0.20871,-0.03695 -0.37407,0.07686 -0.16697,0.13598c0.20871,0.05764 0.25206,0.28673 0.06261,0.34437c-0.18784,0.05764 -0.89746,0 -1.12704,0s-0.56191,0.05764 -0.62613,-0.05764c-0.06261,-0.11528 0.18945,-0.19066 0.33394,-0.19066c0.1461,0 0.58278,0.01774 0.74975,-0.19214c0.16697,-0.21135 -0.20871,-0.24978 -0.37407,-0.24978c-0.16697,0 -0.2938,-0.05764 -0.48003,-0.22909c-0.18945,-0.17293 0.12523,-0.28821 0.08348,-0.36507c-0.04174,-0.07686 -0.25045,-0.02069 -0.43669,-0.02069c-0.18784,0 -0.48003,-0.13302 -0.48003,0.02069c0,0.15371 0.22958,0.59416 0.08348,0.49809c-0.1461,-0.09459 -0.12523,-0.23057 -0.22958,-0.34585c-0.10436,-0.11528 -0.26972,-0.09607 -0.48003,-0.07686c-0.20711,0.01921 -0.56191,0.07686 -0.66627,0.05764c-0.10275,-0.01921 -0.02087,-0.01921 -0.25045,-0.11528c-0.22798,-0.09607 -0.33394,-0.07686 -0.50091,-0.17293c-0.16536,-0.09903 -0.01927,-0.13598 -0.31146,-0.15519c-0.29059,-0.01921 -0.26972,0.13302 -0.56191,0.09607c-0.29219,-0.03843 -0.37568,0.01921 -0.66787,0c-0.29219,-0.01921 -0.43669,-0.03843 -0.48003,0.09607c-0.04014,0.1345 -0.12523,0.36507 -0.25045,0.36507c-0.12362,0 -0.27132,0.1345 0.12523,0.15371c0.39655,0.01921 0.16857,0.19066 0.52178,0.17293c0.35481,-0.01921 0.66787,-0.01921 0.75136,-0.17293c0.08348,-0.15371 0.1461,-0.15371 0.18784,-0.09607c0.04014,0.05764 0.3532,0.40202 0.3532,0.40202s0.21032,0.15371 0.2938,0.19214c0.08188,0.03843 -0.08348,0.21135 -0.25045,0.11528c-0.16697,-0.09607 -0.48003,-0.07538 -0.60526,-0.17145c-0.12523,-0.09607 -0.68875,-0.09607 -0.83484,-0.07686c-0.14449,0.01921 -0.39655,-0.05764 -0.48003,-0.05764c-0.08188,0 -0.35481,0.19214 -0.35481,0.19214s-0.10436,-0.15519 -0.16536,-0.23205c-0.06261,-0.07686 -0.16697,0.07686 -0.25045,0.09607c-0.08348,0.01921 -0.33394,-0.15371 -0.58439,-0.07686c-0.25045,0.07686 -0.16697,0.15371 -0.52178,0.1345s-0.43669,-0.07686 -0.56191,-0.05764c-0.12683,0.01921 -0.12683,0.01921 -0.12683,0.01921s0.02087,0.07686 -0.12362,0.15371c-0.1461,0.07686 -0.25206,0.17293 -0.35641,0.05764c-0.10275,-0.11528 -0.16536,-0.11528 -0.22798,-0.1345c-0.06422,-0.01921 -0.18945,-0.11528 -0.45916,-0.05912c-0.27132,0.05912 -0.68875,-0.07538 -0.77062,-0.07538c-0.06422,0 -0.50251,-0.02217 -0.78828,-0.04877c3.38593,-3.38758 8.22641,-5.52773 13.61114,-5.52773c3.41643,0 6.60971,0.87054 9.35987,2.36185c-0.18784,0.10642 -0.51214,0.08868 -0.62292,0.03399c-0.12523,-0.06355 -0.25366,-0.11528 -0.7626,-0.09016c-0.50893,0.0266 -1.06764,0.18032 -0.95525,0.33403c0.11559,0.15371 -0.22798,0.24387 -0.31628,0.16701c-0.0883,-0.07686 -0.49609,0.08868 -0.4704,0.24387c0.02569,0.15371 -0.06261,0.33255 -0.28096,0.29412c-0.21513,-0.03991 -0.36765,0.08868 -0.3805,0.21579c-0.01124,0.12859 -0.49609,0.21727 -0.53301,0.21727c-0.03853,0 -0.66145,-0.01182 -0.43348,0.14041c0.15573,0.10198 0.24082,0.03991 0.43348,0.07686c0.19105,0.03843 0.34357,0.32073 0.44471,0.35915c0.09954,0.03843 0.24082,0 0.30343,-0.07686c0.06422,-0.07686 0.15252,-0.34585 0.15252,-0.34585s0,0.25569 0.15573,0.30742c0.15252,0.05173 0.53141,-0.03843 0.63416,-0.02513c0.10275,0.01182 0.70159,0.09016 0.86374,0.16554c0.16697,0.07686 0.57155,0.12859 0.68714,0.29412c0.11399,0.16701 0.12844,0.74344 0.19105,0.80699c0.06422,0.06355 0.27935,-0.20544 0.32912,-0.269c0.04977,-0.06503 0.31788,-0.0266 0.40779,0.06208c0.08991,0.09016 0.29219,0.30742 0.28096,0.39758c-0.01605,0.09164 -0.05298,0.23057 -0.12844,0.18032c-0.07706,-0.05025 -0.20389,-0.03695 -0.15412,-0.14041c0.05137,-0.10198 0.07706,-0.32073 -0.02408,-0.32073c-0.10275,0 -0.19105,0 -0.19105,0s-0.19266,-0.05173 -0.31949,0.14041s-0.02408,0.38428 0.06422,0.38428s0.29541,0 0.29541,0.05025c0,0.05173 -0.21834,0.20544 -0.2055,0.2956c0.01445,0.09016 0.1766,0.3961 0.23119,0.46114c0.04977,0.06355 0.31628,0.12711 0.39173,0.14189c0.07867,0.01182 -0.17821,0.02513 -0.11238,0.11381c0.06422,0.09016 0.16376,0.30742 0.30343,0.35915c0.13968,0.05173 0.53462,0.28082 0.58278,0.38428c0.05137,0.10198 0.35641,-0.07686 0.42063,-0.09016c0.06422,-0.01182 0.05137,0.269 0.22958,0.2823c0.1766,0.01182 0.24082,-0.0266 0.39334,-0.14189s0.11559,-0.269 0.12683,-0.38428c0.01445,-0.11528 0,-0.20396 0.16697,-0.16701c0.16697,0.03843 0.25366,-0.0266 0.24082,-0.15371c-0.01284,-0.12859 -0.15252,-0.2823 0.11238,-0.32073c0.26811,-0.03843 0.40779,-0.20396 0.57315,-0.20396c0.16536,0 0.62453,0.06355 0.67269,0c0.05137,-0.06355 0.26811,-0.35915 0.40779,-0.37098c0.10757,-0.01035 0.35962,-0.03104 0.6181,-0.06208c2.53985,2.78604 4.1116,6.33177 4.29141,10.20561c-0.18945,0.235 -0.01927,0.45079 0.03371,0.60303c0.00161,0.04434 0.00803,0.08572 0.00803,0.13006c0,0.20101 -0.02569,0.39758 -0.03371,0.59711c-0.00161,0.00296 -0.00161,0.00591 -0.00482,0.00887l-0.00004,-0.00001zm-15.59871,-6.39384c-0.10275,0.01921 -0.27132,-0.07686 -0.27132,-0.21135s-0.1461,0.24978 -0.06422,0.36507c0.08509,0.11528 -0.16697,0.24978 -0.24885,0.24978s-0.1461,-0.17145 -0.12523,-0.34437c0.02248,-0.17293 -0.12362,-0.32664 -0.35481,-0.30742c-0.22958,0.02069 -0.33394,0.19214 -0.41582,0.24978c-0.08509,0.05764 -0.08509,0.3828 -0.06422,0.46114s0.02087,0.34733 -0.18623,0.32664c-0.18945,-0.01921 -0.1477,-0.34437 -0.12683,-0.46114c0.02248,-0.11528 -0.06261,-0.40349 0.02248,-0.55573c0.08509,-0.15371 0.33233,-0.21135 0.50091,-0.23057s0.52017,0.09607 0.58278,0.07686c0.06422,-0.02069 0.35641,-0.02069 0.50091,0c0.1461,0.01626 0.3532,0.36211 0.25045,0.38132l0,-0.00001zm0.37407,0.05764c0.06422,0.03843 0.4993,-0.05764 0.58439,0.03843c0.08188,0.09607 -0.0867,0.11528 -0.2938,0.19214c-0.20711,0.07686 -0.27132,0.05764 -0.35481,0.15371s-0.35481,0.13302 -0.48003,0.2483c-0.12523,0.11676 -0.34839,0.18475 -0.39494,0.09607c-0.06422,-0.11528 0.02087,-0.05764 0.04014,-0.11528c0.02087,-0.05764 0.39334,-0.19066 0.39334,-0.19066s0.44311,-0.46114 0.50572,-0.42271l-0.00001,0zm-1.66808,-0.67249c-0.06101,0.01921 -0.29219,-0.03843 -0.48164,-0.03843c-0.18623,0 -0.1461,-0.11528 -0.22958,-0.09459c-0.08188,0.01921 -0.26972,0.05764 -0.39655,0.11528c-0.12523,0.05764 -0.33394,0.04434 -0.33394,-0.05912c0,-0.15371 0.08348,-0.11528 0.35481,-0.21135c0.27132,-0.09607 0.56512,-0.36507 0.68875,-0.24978c0.12523,0.11528 0.35481,0.24978 0.50091,0.269c0.1477,0.02069 -0.04174,0.24978 -0.10275,0.269l-0.00001,-0.00001zm-2.13366,-5.95783c-0.12683,0.03843 -0.5571,0.20544 -0.51535,0.29412c0.01605,0.03399 0.12523,0.10198 0.30504,0.07686c0.18142,-0.0266 0.44311,-0.05173 0.56994,-0.06355c0.12523,-0.0133 0.15252,-0.20544 0.01445,-0.21727c-0.13968,-0.0133 -0.25045,-0.12859 -0.37407,-0.09016l-0.00001,0zm-1.54285,0.15371c-0.09793,0.03843 -0.39013,-0.06355 -0.54265,0.0266c-0.09793,0.05616 -0.04174,0.24239 0.11238,0.25422c0.15252,0.0133 0.41582,-0.08868 0.44311,-0.01182c0.0289,0.07686 0.12523,0.42271 0.37568,0.30742c0.25045,-0.11528 0.236,-0.21727 0.30504,-0.23057c0.06904,-0.0133 -0.01284,-0.29412 -0.12523,-0.35915c-0.11078,-0.06355 -0.47201,-0.02513 -0.56834,0.0133l0.00001,0zm-0.50251,-1.08781c0.02729,0.06503 -0.01284,0.11528 0.18142,0.14041c0.19426,0.0266 0.27775,0.05173 0.39013,0.05173c0.11078,0 0.06743,-0.16701 -0.0289,-0.28082c-0.09793,-0.11528 -0.06904,-0.10198 -0.31949,-0.16701c-0.25045,-0.06355 -0.50091,-0.06355 -0.66787,-0.05173c-0.16697,0.0133 -0.34839,-0.02513 -0.39013,0.15371c-0.02087,0.09164 0.11238,0.16554 0.27935,0.16554s0.5282,-0.07538 0.55549,-0.01182l0,-0.00001zm0.36284,0.70353c0.06904,0.14041 0.06904,0.07538 0.2649,0.09016c0.19266,0.0133 0.34518,-0.17884 0.35962,-0.24239c0.01445,-0.06503 -0.09793,-0.19214 -0.36123,-0.16701c-0.2649,0.02513 -1.07085,-0.03843 -1.18162,0.05025c-0.10596,0.08572 0,0.34437 -0.04174,0.37098c-0.04174,0.02513 0.01445,0.14041 0.12362,0.11528c0.11078,-0.02513 0.16697,-0.269 0.25206,-0.269c0.08348,0.00148 0.51535,-0.08868 0.58439,0.05173zm-2.6153,-0.52469c0.08348,0.06355 0.2938,0.01182 0.27775,-0.05173c-0.01284,-0.06355 0.08509,-0.32073 -0.08188,-0.33255c-0.16697,-0.01182 -0.40137,0.14189 -0.65342,0.21874c-0.16215,0.04877 -0.12523,0.19214 -0.01445,0.19214s0.39013,-0.09016 0.47201,-0.0266l-0.00001,0zm1.18483,0.23057c-0.13968,0.06355 -0.18302,0.10198 -0.30664,0.07686c-0.12523,-0.02513 -0.12523,-0.23057 -0.34839,-0.19214c-0.22155,0.03843 -0.2633,0.15371 -0.33233,0.20544s-0.22316,0.09016 -0.27775,0.06355c-0.05459,-0.02513 -0.37568,-0.19066 -0.37568,-0.19066s-0.66787,-0.0266 -0.69517,-0.10346c-0.02729,-0.07686 -0.13807,-0.20396 -0.44471,-0.17884s-0.83484,0.19214 -0.91833,0.19214c-0.08348,0 0.09954,0.15371 -0.01445,0.15371c-0.11078,0 -0.24885,-0.01182 -0.29059,0.10198c-0.0289,0.07833 0.12523,0.07686 0.30343,0.07686c0.17981,0 0.47361,0 0.5571,-0.03843c0.08348,-0.03843 0.50091,-0.12859 0.48646,-0.0133c-0.01445,0.11676 0.16697,0.29412 0.2633,0.269c0.09793,-0.02513 0.2938,-0.19214 0.39013,-0.12711c0.09793,0.06355 0.11238,0.21579 0.20871,0.25569c0.09793,0.03695 0.36284,0.03695 0.48806,0c0.12362,-0.03991 0.47201,-0.03991 0.62453,-0.0133c0.15252,0.0266 0.59884,0.10198 0.64058,0.0266c0.04174,-0.07833 0.16697,-0.09016 0.17981,-0.16701s0.08188,-0.31925 0.08188,-0.31925s-0.08188,-0.14189 -0.21995,-0.07833zm7.03997,13.23848c-0.19105,0.03104 -0.1461,0.37246 0.08348,0.31038c0.22958,-0.06208 0.10596,-0.3429 -0.08348,-0.31038zm1.81418,-0.45818c-0.16697,-0.03843 -0.35481,0 -0.48003,0.01921c-0.12523,0.01921 -0.48003,0.30742 -0.48003,0.30742s0.22958,0.03843 0.37407,0.03843c0.1477,0 0.23119,0.07538 0.35481,0.13302c0.12523,0.05912 0.35481,-0.07686 0.43669,-0.07686c0.08509,0 0.18945,0.23057 0.21032,-0.01921c0.02248,-0.24978 -0.24885,-0.36359 -0.41582,-0.40202l-0.00001,0.00001zm-5.81018,-12.44775c-0.06904,-0.15371 -0.41582,-0.20544 -0.48806,-0.05173c-0.06101,0.1345 0.5571,0.20544 0.48806,0.05173zm3.97674,11.50626c0.22958,-0.03843 0.10275,-0.21283 -0.08509,-0.19214c-0.18945,0.01921 -0.1461,0.23057 0.08509,0.19214zm2.77264,1.18684c-0.19105,0.03252 -0.1477,0.37393 0.08188,0.31186c0.23119,-0.06208 0.10596,-0.3429 -0.08188,-0.31186zm-2.5254,-0.57199c-0.14449,0.01921 -0.45756,-0.13302 -0.62453,-0.269c-0.16697,-0.1345 -0.48003,-0.1345 -0.60526,-0.1345c-0.12362,0 -0.62613,0.1345 -0.62613,0.1345c-0.02087,0.19214 0.18784,0.1345 0.43829,0.1345s0.68875,-0.03843 0.76902,0.05764c0.08509,0.09459 0.45916,0.2483 0.56512,0.32664c0.10275,0.07686 0.43669,0.09607 0.45756,0.01921s-0.22798,-0.28821 -0.37407,-0.269l0,0.00001zm-2.48687,-12.26152c-0.20871,-0.0133 -0.47361,-0.0133 -0.64058,0c-0.16697,0.01182 -0.29219,-0.10198 -0.41742,-0.16701c-0.12362,-0.06355 -0.40297,-0.269 -0.56834,-0.29412c-0.16697,-0.02513 -0.13807,-0.02513 -0.48646,-0.10198c-0.1766,-0.03991 -0.47201,-0.09016 -0.47201,-0.12711c0,-0.03843 -0.08348,0.17884 0.06904,0.24387c0.15252,0.06355 0.40297,0.17884 0.58278,0.24239c0.18302,0.06355 0.5282,0.07686 0.64058,0.20544c0.11078,0.12711 0.48646,0.23057 0.48646,0.23057l0.44471,0.03843c0,0 0.30664,-0.06355 0.62613,-0.03843c0.31949,0.02513 0.79149,0.06355 1.058,0.05173c0.26169,-0.01182 0.30343,-0.09016 0.33394,-0.14041c0.02569,-0.05173 -0.48806,-0.15371 -0.61489,-0.14041c-0.12202,0.00887 -0.83484,0.00887 -1.04195,-0.00296l0.00001,0zm0.77705,2.94418c-0.05459,0.05764 0.25206,0.14041 0.30664,0.06355c0.05459,-0.07538 -0.16376,-0.20396 -0.30664,-0.06355zm0.93438,0.26752c0.13807,-0.05173 0.06904,-0.20544 -0.12683,-0.15371c-0.22155,0.05912 -0.01445,0.20544 0.12683,0.15371z" id="svg_20"/>
 </g>

</svg>