<svg width="192" height="186" xmlns="http://www.w3.org/2000/svg">
 <g id="Layer_1">
  <title>Layer 1</title>
  <ellipse fill="#ff2d2d" cx="99" cy="90.29999" id="svg_2" rx="39" ry="37.5"/>
  <rect fill="#ff2d2d" x="48" y="74.8" width="39" height="12" id="svg_4" transform="rotate(15.0201, 67.5, 80.8)"/>
  <rect fill="#ff2d2d" x="114" y="51.8" width="39" height="12" id="svg_8" transform="rotate(-52.0904, 133.5, 57.8)"/>
  <rect fill="#ff2d2d" x="45" y="43.8" width="39" height="12" id="svg_9" transform="rotate(50.7928, 64.5, 49.8)"/>
  <rect fill="#ff2d2d" x="57" y="113.8" width="39" height="12" id="svg_10" transform="rotate(-52.7115, 76.5, 119.8)"/>
  <rect fill="#ff2d2d" x="32.53639" y="99.87796" width="39" height="9.16499" id="svg_11" transform="rotate(-17.5148, 52.0364, 104.46)"/>
  <rect fill="#ff2d2d" x="113" y="109.8" width="39" height="12" id="svg_13" transform="rotate(36.5427, 132.5, 115.8)"/>
  <rect fill="#ff2d2d" x="90" y="135.8" width="39" height="12" id="svg_14" transform="rotate(-102.436, 109.5, 141.8)"/>
  <rect fill="#ff2d2d" x="82" y="46.8" width="39" height="12" id="svg_17" transform="rotate(-89.2334, 101.5, 52.8)"/>
  <rect fill="#ff2d2d" x="127" y="82.8" width="39" height="12" id="svg_19" transform="rotate(-0.315271, 146.5, 88.8)"/>
  <ellipse fill="#ff2d2d" cx="116" cy="168.8" id="svg_21" rx="18" ry="18"/>
  <ellipse fill="#ff2d2d" cx="23.5" cy="114.30001" id="svg_22" rx="20.5" ry="20.5"/>
  <ellipse fill="#ff2d2d" cx="56" cy="37.8" id="svg_23" rx="15" ry="15"/>
  <ellipse fill="#ff2d2d" cx="59" cy="142.8" id="svg_24" rx="12" ry="12"/>
  <ellipse fill="#ff2d2d" cx="45" cy="73.8" id="svg_25" rx="15" ry="15"/>
  <ellipse fill="#ff2d2d" cx="102.00001" cy="19.8" id="svg_26" rx="20" ry="20"/>
  <ellipse fill="#ff2d2d" cx="148.5" cy="127.80001" id="svg_27" rx="19.5" ry="19"/>
  <ellipse transform="matrix(1, 0, 0, 1, 0, 0)" fill="#ff2d2d" cx="177" cy="87.8" id="svg_28" rx="15" ry="15"/>
  <ellipse fill="#ff2d2d" cx="144" cy="43.8" id="svg_29" rx="15" ry="15"/>
  <path id="svg_6" d="m352.5,126.79999" opacity="NaN" fill="#ff2d2d"/>
  <path transform="rotate(-139.394, 114.548, 103.081)" id="svg_36" d="m133.15675,140.67323l0,0c-20.55236,0 -37.21665,-16.82727 -37.21665,-37.59137c0,-20.76144 16.66428,-37.59137 37.21665,-37.59137l0,0c-11.7128,8.87382 -18.60704,22.80167 -18.60704,37.59137s6.89424,28.71489 18.60704,37.59137z" fill="#8e0909"/>
  <path transform="rotate(-134.746, 31.5586, 122.326)" id="svg_37" d="m40.56015,142.24083l0,0c-9.94021,0 -17.99995,-8.91439 -17.99995,-19.91436c0,-10.99855 8.05973,-19.91436 17.99995,-19.91436l0,0c-5.66493,4.70098 -8.99936,12.07938 -8.99936,19.91436s3.33442,15.21196 8.99936,19.91436z" fill="#8e0909"/>
  <path transform="rotate(-131.798, 108.58, 27.6781)" id="svg_38" d="m119.57853,47.17087l0,0c-12.14922,0 -22.00007,-8.72567 -22.00007,-19.49276c0,-10.76571 9.85084,-19.49276 22.00007,-19.49276l0,0c-6.92385,4.60146 -10.99928,11.82366 -10.99928,19.49276s4.07543,14.88992 10.99928,19.49276z" fill="#8e0909"/>
  <path transform="rotate(-135.235, 61.5553, 43.4396)" id="svg_39" d="m68.55386,58.47114l0,0c-7.72906,0 -13.99594,-6.72867 -13.99594,-15.03154c0,-8.30181 6.26688,-15.03154 13.99594,-15.03154l0,0c-4.4048,3.54834 -6.99749,9.11763 -6.99749,15.03154s2.5927,11.48213 6.99749,15.03154z" fill="#8e0909"/>
  <path transform="rotate(-141.122, 50.7585, 78.5423)" id="svg_40" d="m57.76216,93.7102l0,0c-7.73342,0 -14.00383,-6.78926 -14.00383,-15.16689c0,-8.37656 6.27042,-15.16689 14.00383,-15.16689l0,0c-4.40728,3.5803 -7.00143,9.19973 -7.00143,15.16689s2.59416,11.58552 7.00143,15.16689z" fill="#8e0909"/>
  <path transform="rotate(-131.458, 63.887, 147.92)" id="svg_41" d="m68.65311,159.00002l0,0c-5.26447,0 -9.53302,-4.95972 -9.53302,-11.0798c0,-6.11929 4.26854,-11.0798 9.53302,-11.0798l0,0c-3.00023,2.6155 -4.76618,6.72064 -4.76618,11.0798s1.76596,8.46352 4.76618,11.0798z" fill="#8e0909"/>
  <path transform="rotate(-134.448, 182.823, 93.4757)" id="svg_42" d="m189.49707,108.24979l0,0c-7.37229,0 -13.34989,-6.61363 -13.34989,-14.77455c0,-8.15987 5.97761,-14.77455 13.34989,-14.77455l0,0c-4.20147,3.48768 -6.67449,8.96175 -6.67449,14.77455s2.47302,11.28582 6.67449,14.77455z" fill="#8e0909"/>
  <path transform="rotate(-134.331, 122.324, 175.114)" id="svg_43" d="m131.26966,193.01935l0,0c-9.88035,0 -17.89154,-8.01436 -17.89154,-17.90373c0,-9.8881 8.01119,-17.90373 17.89154,-17.90373l0,0c-5.63082,4.22635 -8.94516,10.85981 -8.94516,17.90373s3.31434,13.67611 8.94516,17.90373z" fill="#8e0909"/>
  <path transform="rotate(-131.305, 149.693, 49.8516)" id="svg_45" d="m156.02578,63.88943l0,0c-6.99353,0 -12.66403,-6.284 -12.66403,-14.03817c0,-7.75318 5.6705,-14.03817 12.66403,-14.03817l0,0c-3.98561,3.31385 -6.33158,8.51509 -6.33158,14.03817s2.34596,10.72333 6.33158,14.03817z" fill="#8e0909"/>
  <path transform="rotate(-132.662, 155.817, 135.47)" id="svg_46" d="m164.0173,154.06045l0,0c-9.05841,0 -16.40315,-8.32186 -16.40315,-18.59066c0,-10.26748 7.34475,-18.59066 16.40315,-18.59066l0,0c-5.16239,4.38851 -8.20101,11.27647 -8.20101,18.59066s3.03862,14.20083 8.20101,18.59066z" fill="#8e0909"/>
 </g>

</svg>