<svg width="192" height="186" xmlns="http://www.w3.org/2000/svg">
 <g id="Layer_1">
  <title>Layer 1</title>
  <ellipse ry="37.5" rx="39" id="svg_2" cy="90.29999" cx="99" fill="#ff2d2d"/>
  <rect transform="rotate(15.0201, 67.5, 80.8)" id="svg_4" height="12" width="39" y="74.8" x="48" fill="#ff2d2d"/>
  <rect transform="rotate(-52.0904, 133.5, 57.8)" id="svg_8" height="12" width="39" y="51.8" x="114" fill="#ff2d2d"/>
  <rect transform="rotate(50.7928, 64.5, 49.8)" id="svg_9" height="12" width="39" y="43.8" x="45" fill="#ff2d2d"/>
  <rect transform="rotate(-52.7115, 76.5, 119.8)" id="svg_10" height="12" width="39" y="113.8" x="57" fill="#ff2d2d"/>
  <rect transform="rotate(-19.0905, 52.0364, 102.46)" id="svg_11" height="9.16499" width="39" y="97.87796" x="32.53639" fill="#ff2d2d"/>
  <rect transform="rotate(36.5427, 132.5, 115.8)" id="svg_13" height="12" width="39" y="109.8" x="113" fill="#ff2d2d"/>
  <rect transform="rotate(-102.436, 109.5, 141.8)" id="svg_14" height="12" width="39" y="135.8" x="90" fill="#ff2d2d"/>
  <rect transform="rotate(-89.2334, 101.5, 52.8)" id="svg_17" height="12" width="39" y="46.8" x="82" fill="#ff2d2d"/>
  <rect transform="rotate(-0.315271, 146.5, 88.8)" id="svg_19" height="12" width="39" y="82.8" x="127" fill="#ff2d2d"/>
  <ellipse ry="18" rx="18" id="svg_21" cy="168.8" cx="116" fill="#ff2d2d"/>
  <ellipse ry="20.5" rx="20.5" id="svg_22" cy="113.30001" cx="20.5" fill="#ff2d2d"/>
  <ellipse ry="15" rx="15" id="svg_23" cy="37.8" cx="56" fill="#ff2d2d"/>
  <ellipse ry="12" rx="12" id="svg_24" cy="142.8" cx="59" fill="#ff2d2d"/>
  <ellipse ry="15" rx="15" id="svg_25" cy="73.8" cx="45" fill="#ff2d2d"/>
  <ellipse ry="20" rx="20" id="svg_26" cy="19.8" cx="102.00001" fill="#ff2d2d"/>
  <ellipse ry="19" rx="19.5" id="svg_27" cy="127.80001" cx="148.5" fill="#ff2d2d"/>
  <ellipse ry="15" rx="15" id="svg_28" cy="87.8" cx="177" fill="#ff2d2d"/>
  <ellipse ry="15" rx="15" id="svg_29" cy="43.8" cx="144" fill="#ff2d2d"/>
 </g>

</svg>